<?xml version="1.0" standalone="no"?>
<!DOCTYPE svg PUBLIC "-//W3C//DTD SVG 20010904//EN"
 "http://www.w3.org/TR/2001/REC-SVG-20010904/DTD/svg10.dtd">
<svg version="1.0" xmlns="http://www.w3.org/2000/svg"
 width="180.000000pt" height="180.000000pt" viewBox="0 0 180.000000 180.000000"
 preserveAspectRatio="xMidYMid meet">

<g transform="translate(0.000000,180.000000) scale(0.100000,-0.100000)"
fill="#000000" stroke="none">
<path d="M623 1594 c-13 -3 -30 -15 -38 -27 -29 -41 -19 -63 65 -145 91 -89
126 -154 136 -251 l7 -63 -315 -316 c-174 -174 -324 -332 -333 -351 -40 -80
-12 -206 60 -270 58 -50 159 -66 233 -36 25 11 141 120 353 331 252 252 320
315 336 310 10 -3 41 -28 68 -56 40 -40 49 -56 49 -86 1 -28 8 -42 28 -57 23
-17 31 -18 56 -8 16 7 99 83 185 170 131 132 157 162 157 187 0 16 -4 34 -8
40 -13 20 -52 35 -73 29 -16 -5 -32 3 -66 36 -60 59 -73 87 -73 161 l0 63
-127 126 c-189 187 -238 208 -503 214 -96 2 -185 1 -197 -1z m439 -177 c34
-17 95 -64 152 -118 95 -90 96 -91 96 -138 0 -78 24 -131 90 -196 33 -33 60
-64 60 -69 0 -6 -26 -36 -57 -68 l-57 -57 -62 60 c-72 68 -109 87 -193 95 -55
6 -63 10 -109 58 l-50 51 -5 100 c-6 117 -23 178 -72 259 l-35 58 93 -4 c76
-3 103 -9 149 -31z m-122 -602 c0 -6 -123 -133 -273 -283 -267 -265 -275 -272
-314 -272 -52 0 -85 33 -85 86 0 35 14 50 278 315 l279 279 57 -57 c32 -32 58
-62 58 -68z"/>
</g>
</svg>
